<mxfile host="app.diagrams.net" modified="2020-10-19T00:27:48.251Z" agent="5.0 (Windows NT 10.0; Win64; x64) AppleWebKit/537.36 (KHTML, like Gecko) Chrome/86.0.4240.75 Safari/537.36" etag="O3rdv2ZgphW7uTT9Powh" version="13.8.0" type="github">
  <diagram id="kgpKYQtTHZ0yAKxKKP6v" name="Page-1">
    <mxGraphModel dx="2062" dy="1066" grid="1" gridSize="10" guides="1" tooltips="1" connect="1" arrows="1" fold="1" page="1" pageScale="1" pageWidth="850" pageHeight="1100" math="0" shadow="0">
      <root>
        <mxCell id="0" />
        <mxCell id="1" parent="0" />
        <mxCell id="Dq_quV-P6q5Sjp-DjSC7-1" value="Excel" style="rounded=0;whiteSpace=wrap;html=1;" vertex="1" parent="1">
          <mxGeometry x="380" y="60" width="110" height="40" as="geometry" />
        </mxCell>
        <mxCell id="Dq_quV-P6q5Sjp-DjSC7-2" value="Menu" style="rounded=0;whiteSpace=wrap;html=1;" vertex="1" parent="1">
          <mxGeometry x="195" y="60" width="100" height="40" as="geometry" />
        </mxCell>
        <mxCell id="Dq_quV-P6q5Sjp-DjSC7-3" value="User" style="shape=umlActor;verticalLabelPosition=bottom;verticalAlign=top;html=1;outlineConnect=0;" vertex="1" parent="1">
          <mxGeometry x="41" y="90" width="30" height="60" as="geometry" />
        </mxCell>
        <mxCell id="Dq_quV-P6q5Sjp-DjSC7-6" value="" style="endArrow=none;dashed=1;html=1;" edge="1" parent="1">
          <mxGeometry width="50" height="50" relative="1" as="geometry">
            <mxPoint x="60" y="760" as="sourcePoint" />
            <mxPoint x="60" y="180" as="targetPoint" />
          </mxGeometry>
        </mxCell>
        <mxCell id="Dq_quV-P6q5Sjp-DjSC7-15" value="" style="rounded=0;whiteSpace=wrap;html=1;" vertex="1" parent="1">
          <mxGeometry x="240" y="190" width="10" height="30" as="geometry" />
        </mxCell>
        <mxCell id="Dq_quV-P6q5Sjp-DjSC7-18" value="" style="endArrow=classic;html=1;" edge="1" parent="1">
          <mxGeometry width="50" height="50" relative="1" as="geometry">
            <mxPoint x="60" y="200" as="sourcePoint" />
            <mxPoint x="230" y="200" as="targetPoint" />
          </mxGeometry>
        </mxCell>
        <mxCell id="Dq_quV-P6q5Sjp-DjSC7-19" value="operateManu" style="edgeLabel;html=1;align=center;verticalAlign=middle;resizable=0;points=[];" vertex="1" connectable="0" parent="Dq_quV-P6q5Sjp-DjSC7-18">
          <mxGeometry x="-0.1647" y="3" relative="1" as="geometry">
            <mxPoint y="-7" as="offset" />
          </mxGeometry>
        </mxCell>
        <mxCell id="Dq_quV-P6q5Sjp-DjSC7-20" value="" style="endArrow=none;dashed=1;html=1;" edge="1" parent="1">
          <mxGeometry width="50" height="50" relative="1" as="geometry">
            <mxPoint x="245" y="190" as="sourcePoint" />
            <mxPoint x="245" y="100" as="targetPoint" />
          </mxGeometry>
        </mxCell>
        <mxCell id="Dq_quV-P6q5Sjp-DjSC7-21" value="" style="rounded=0;whiteSpace=wrap;html=1;" vertex="1" parent="1">
          <mxGeometry x="240" y="230" width="10" height="30" as="geometry" />
        </mxCell>
        <mxCell id="Dq_quV-P6q5Sjp-DjSC7-23" value="Select&lt;br&gt;" style="text;html=1;align=center;verticalAlign=middle;resizable=0;points=[];autosize=1;" vertex="1" parent="1">
          <mxGeometry x="295" y="220" width="50" height="20" as="geometry" />
        </mxCell>
        <mxCell id="Dq_quV-P6q5Sjp-DjSC7-24" value="Memory" style="rounded=0;whiteSpace=wrap;html=1;" vertex="1" parent="1">
          <mxGeometry x="580" y="60" width="110" height="40" as="geometry" />
        </mxCell>
        <mxCell id="Dq_quV-P6q5Sjp-DjSC7-25" value="" style="endArrow=classic;html=1;" edge="1" parent="1">
          <mxGeometry width="50" height="50" relative="1" as="geometry">
            <mxPoint x="255" y="205" as="sourcePoint" />
            <mxPoint x="255" y="255" as="targetPoint" />
            <Array as="points">
              <mxPoint x="295" y="205" />
              <mxPoint x="295" y="255" />
            </Array>
          </mxGeometry>
        </mxCell>
        <mxCell id="Dq_quV-P6q5Sjp-DjSC7-26" value="" style="rounded=0;whiteSpace=wrap;html=1;" vertex="1" parent="1">
          <mxGeometry x="430" y="280" width="10" height="110" as="geometry" />
        </mxCell>
        <mxCell id="Dq_quV-P6q5Sjp-DjSC7-27" value="" style="endArrow=none;dashed=1;html=1;" edge="1" parent="1">
          <mxGeometry width="50" height="50" relative="1" as="geometry">
            <mxPoint x="440" y="760" as="sourcePoint" />
            <mxPoint x="440" y="110" as="targetPoint" />
            <Array as="points">
              <mxPoint x="440" y="170" />
            </Array>
          </mxGeometry>
        </mxCell>
        <mxCell id="Dq_quV-P6q5Sjp-DjSC7-28" value="" style="endArrow=classic;html=1;" edge="1" parent="1">
          <mxGeometry width="50" height="50" relative="1" as="geometry">
            <mxPoint x="60" y="340" as="sourcePoint" />
            <mxPoint x="420" y="340" as="targetPoint" />
          </mxGeometry>
        </mxCell>
        <mxCell id="Dq_quV-P6q5Sjp-DjSC7-29" value="operateExcel" style="text;html=1;align=center;verticalAlign=middle;resizable=0;points=[];autosize=1;" vertex="1" parent="1">
          <mxGeometry x="185" y="320" width="90" height="20" as="geometry" />
        </mxCell>
        <mxCell id="Dq_quV-P6q5Sjp-DjSC7-33" value="" style="endArrow=classic;html=1;" edge="1" parent="1">
          <mxGeometry width="50" height="50" relative="1" as="geometry">
            <mxPoint x="440" y="300" as="sourcePoint" />
            <mxPoint x="640" y="300" as="targetPoint" />
          </mxGeometry>
        </mxCell>
        <mxCell id="Dq_quV-P6q5Sjp-DjSC7-34" value="information" style="text;html=1;align=center;verticalAlign=middle;resizable=0;points=[];autosize=1;" vertex="1" parent="1">
          <mxGeometry x="495" y="270" width="70" height="20" as="geometry" />
        </mxCell>
        <mxCell id="Dq_quV-P6q5Sjp-DjSC7-35" value="" style="endArrow=classic;html=1;dashed=1;dashPattern=1 2;" edge="1" parent="1">
          <mxGeometry width="50" height="50" relative="1" as="geometry">
            <mxPoint x="640" y="370" as="sourcePoint" />
            <mxPoint x="440" y="370" as="targetPoint" />
          </mxGeometry>
        </mxCell>
        <mxCell id="Dq_quV-P6q5Sjp-DjSC7-36" value="done" style="text;html=1;align=center;verticalAlign=middle;resizable=0;points=[];autosize=1;" vertex="1" parent="1">
          <mxGeometry x="500" y="350" width="40" height="20" as="geometry" />
        </mxCell>
        <mxCell id="Dq_quV-P6q5Sjp-DjSC7-41" value="" style="endArrow=none;dashed=1;html=1;dashPattern=1 3;strokeWidth=2;" edge="1" parent="1" source="Dq_quV-P6q5Sjp-DjSC7-37">
          <mxGeometry width="50" height="50" relative="1" as="geometry">
            <mxPoint x="650" y="760" as="sourcePoint" />
            <mxPoint x="650" y="100" as="targetPoint" />
          </mxGeometry>
        </mxCell>
        <mxCell id="Dq_quV-P6q5Sjp-DjSC7-37" value="" style="rounded=0;whiteSpace=wrap;html=1;" vertex="1" parent="1">
          <mxGeometry x="640" y="330" width="10" height="30" as="geometry" />
        </mxCell>
        <mxCell id="Dq_quV-P6q5Sjp-DjSC7-42" value="" style="endArrow=none;dashed=1;html=1;dashPattern=1 3;strokeWidth=2;" edge="1" parent="1" target="Dq_quV-P6q5Sjp-DjSC7-37">
          <mxGeometry width="50" height="50" relative="1" as="geometry">
            <mxPoint x="650" y="760" as="sourcePoint" />
            <mxPoint x="650" y="100" as="targetPoint" />
          </mxGeometry>
        </mxCell>
        <mxCell id="Dq_quV-P6q5Sjp-DjSC7-43" value="" style="endArrow=classic;html=1;dashed=1;" edge="1" parent="1">
          <mxGeometry width="50" height="50" relative="1" as="geometry">
            <mxPoint x="425" y="380" as="sourcePoint" />
            <mxPoint x="70" y="380" as="targetPoint" />
          </mxGeometry>
        </mxCell>
        <mxCell id="Dq_quV-P6q5Sjp-DjSC7-44" value="filename" style="text;html=1;align=center;verticalAlign=middle;resizable=0;points=[];autosize=1;" vertex="1" parent="1">
          <mxGeometry x="190" y="350" width="60" height="20" as="geometry" />
        </mxCell>
        <mxCell id="Dq_quV-P6q5Sjp-DjSC7-45" value="" style="rounded=0;whiteSpace=wrap;html=1;" vertex="1" parent="1">
          <mxGeometry x="425" y="420" width="15" height="30" as="geometry" />
        </mxCell>
        <mxCell id="Dq_quV-P6q5Sjp-DjSC7-50" value="" style="endArrow=classic;html=1;" edge="1" parent="1">
          <mxGeometry width="50" height="50" relative="1" as="geometry">
            <mxPoint x="60" y="440" as="sourcePoint" />
            <mxPoint x="410" y="440" as="targetPoint" />
          </mxGeometry>
        </mxCell>
        <mxCell id="Dq_quV-P6q5Sjp-DjSC7-51" value="inputFilename" style="text;html=1;align=center;verticalAlign=middle;resizable=0;points=[];autosize=1;" vertex="1" parent="1">
          <mxGeometry x="185" y="420" width="90" height="20" as="geometry" />
        </mxCell>
        <mxCell id="Dq_quV-P6q5Sjp-DjSC7-52" value="" style="rounded=0;whiteSpace=wrap;html=1;" vertex="1" parent="1">
          <mxGeometry x="425" y="460" width="15" height="30" as="geometry" />
        </mxCell>
        <mxCell id="Dq_quV-P6q5Sjp-DjSC7-53" value="" style="endArrow=classic;html=1;" edge="1" parent="1">
          <mxGeometry width="50" height="50" relative="1" as="geometry">
            <mxPoint x="440" y="430" as="sourcePoint" />
            <mxPoint x="440" y="480" as="targetPoint" />
            <Array as="points">
              <mxPoint x="480" y="430" />
              <mxPoint x="480" y="480" />
            </Array>
          </mxGeometry>
        </mxCell>
        <mxCell id="Dq_quV-P6q5Sjp-DjSC7-54" value="saveFile&lt;br&gt;" style="text;html=1;align=center;verticalAlign=middle;resizable=0;points=[];autosize=1;" vertex="1" parent="1">
          <mxGeometry x="470" y="450" width="60" height="20" as="geometry" />
        </mxCell>
        <mxCell id="Dq_quV-P6q5Sjp-DjSC7-55" value="" style="rounded=0;whiteSpace=wrap;html=1;" vertex="1" parent="1">
          <mxGeometry x="425" y="520" width="15" height="30" as="geometry" />
        </mxCell>
        <mxCell id="Dq_quV-P6q5Sjp-DjSC7-57" value="" style="endArrow=classic;html=1;entryX=0;entryY=0.75;entryDx=0;entryDy=0;" edge="1" parent="1" target="Dq_quV-P6q5Sjp-DjSC7-55">
          <mxGeometry width="50" height="50" relative="1" as="geometry">
            <mxPoint x="60" y="540" as="sourcePoint" />
            <mxPoint x="110" y="490" as="targetPoint" />
          </mxGeometry>
        </mxCell>
        <mxCell id="Dq_quV-P6q5Sjp-DjSC7-58" value="inputProduct" style="text;html=1;align=center;verticalAlign=middle;resizable=0;points=[];autosize=1;" vertex="1" parent="1">
          <mxGeometry x="180" y="510" width="80" height="20" as="geometry" />
        </mxCell>
        <mxCell id="Dq_quV-P6q5Sjp-DjSC7-59" value="" style="rounded=0;whiteSpace=wrap;html=1;" vertex="1" parent="1">
          <mxGeometry x="425" y="600" width="15" height="30" as="geometry" />
        </mxCell>
        <mxCell id="Dq_quV-P6q5Sjp-DjSC7-60" value="" style="rounded=0;whiteSpace=wrap;html=1;" vertex="1" parent="1">
          <mxGeometry x="425" y="650" width="15" height="30" as="geometry" />
        </mxCell>
        <mxCell id="Dq_quV-P6q5Sjp-DjSC7-61" value="" style="endArrow=classic;html=1;" edge="1" parent="1">
          <mxGeometry width="50" height="50" relative="1" as="geometry">
            <mxPoint x="440" y="610" as="sourcePoint" />
            <mxPoint x="440" y="660" as="targetPoint" />
            <Array as="points">
              <mxPoint x="480" y="610" />
              <mxPoint x="480" y="660" />
            </Array>
          </mxGeometry>
        </mxCell>
        <mxCell id="Dq_quV-P6q5Sjp-DjSC7-62" value="" style="endArrow=classic;html=1;" edge="1" parent="1">
          <mxGeometry width="50" height="50" relative="1" as="geometry">
            <mxPoint x="60" y="620" as="sourcePoint" />
            <mxPoint x="420" y="620" as="targetPoint" />
          </mxGeometry>
        </mxCell>
        <mxCell id="Dq_quV-P6q5Sjp-DjSC7-63" value="point" style="text;html=1;align=center;verticalAlign=middle;resizable=0;points=[];autosize=1;" vertex="1" parent="1">
          <mxGeometry x="180" y="590" width="40" height="20" as="geometry" />
        </mxCell>
        <mxCell id="Dq_quV-P6q5Sjp-DjSC7-64" value="" style="rounded=0;whiteSpace=wrap;html=1;" vertex="1" parent="1">
          <mxGeometry x="425" y="720" width="15" height="60" as="geometry" />
        </mxCell>
        <mxCell id="Dq_quV-P6q5Sjp-DjSC7-65" value="" style="endArrow=classic;html=1;dashed=1;" edge="1" parent="1">
          <mxGeometry width="50" height="50" relative="1" as="geometry">
            <mxPoint x="60" y="740" as="sourcePoint" />
            <mxPoint x="420" y="740" as="targetPoint" />
          </mxGeometry>
        </mxCell>
        <mxCell id="Dq_quV-P6q5Sjp-DjSC7-66" value="savePrice" style="text;html=1;align=center;verticalAlign=middle;resizable=0;points=[];autosize=1;" vertex="1" parent="1">
          <mxGeometry x="195" y="720" width="70" height="20" as="geometry" />
        </mxCell>
        <mxCell id="Dq_quV-P6q5Sjp-DjSC7-67" value="Sort/Price" style="text;html=1;align=center;verticalAlign=middle;resizable=0;points=[];autosize=1;" vertex="1" parent="1">
          <mxGeometry x="455" y="620" width="70" height="20" as="geometry" />
        </mxCell>
        <mxCell id="Dq_quV-P6q5Sjp-DjSC7-68" value="" style="endArrow=classic;html=1;dashed=1;" edge="1" parent="1">
          <mxGeometry width="50" height="50" relative="1" as="geometry">
            <mxPoint x="410" y="780" as="sourcePoint" />
            <mxPoint x="220" y="780" as="targetPoint" />
          </mxGeometry>
        </mxCell>
        <mxCell id="Dq_quV-P6q5Sjp-DjSC7-69" value="" style="rounded=0;whiteSpace=wrap;html=1;" vertex="1" parent="1">
          <mxGeometry x="205" y="770" width="15" height="30" as="geometry" />
        </mxCell>
        <mxCell id="Dq_quV-P6q5Sjp-DjSC7-70" value="exit" style="text;html=1;align=center;verticalAlign=middle;resizable=0;points=[];autosize=1;" vertex="1" parent="1">
          <mxGeometry x="305" y="790" width="30" height="20" as="geometry" />
        </mxCell>
        <mxCell id="Dq_quV-P6q5Sjp-DjSC7-71" value="" style="endArrow=classic;html=1;dashed=1;" edge="1" parent="1">
          <mxGeometry width="50" height="50" relative="1" as="geometry">
            <mxPoint x="190" y="800" as="sourcePoint" />
            <mxPoint x="80" y="800" as="targetPoint" />
          </mxGeometry>
        </mxCell>
        <mxCell id="Dq_quV-P6q5Sjp-DjSC7-72" value="returen" style="text;html=1;align=center;verticalAlign=middle;resizable=0;points=[];autosize=1;" vertex="1" parent="1">
          <mxGeometry x="95" y="770" width="50" height="20" as="geometry" />
        </mxCell>
      </root>
    </mxGraphModel>
  </diagram>
</mxfile>
